# xmcd CD database file
#
# Track frame offsets:
#	150
#	17124
#	33284
#	51574
#	71483
#	88399
#	109492
#	127333
#	144503
#	163977
#	180354
#
# Disc length: 2644 seconds
#
# Revision: 1
# Processed by: cddbd v1.5.2PL0 Copyright (c) Steve Scherf et al.
# Submitted via: CDex 1.70beta3
#
DISCID=a70a520b
DTITLE=naomi and goro - passagem
DYEAR=2009
DGENRE=Jazz
TTITLE0=Days of May
TTITLE1=Southern Cross 7
TTITLE2=Gabriela
TTITLE3=Silent Clouds
TTITLE4=Soup Song
TTITLE5=Rua Caminhoa (Instrumental)
TTITLE6=No Return
TTITLE7=Ran Into a Bookstore
TTITLE8=3 de Marco (Instrumental)
TTITLE9=I See Me Passing By
TTITLE10=Good Night Song
EXTD=YEAR: 2009
EXTT0=
EXTT1=
EXTT2=
EXTT3=
EXTT4=
EXTT5=
EXTT6=
EXTT7=
EXTT8=
EXTT9=
EXTT10=
PLAYORDER=
